<svg width="82" height="82" viewBox="0 0 82 82" fill="none" xmlns="http://www.w3.org/2000/svg">
<path d="M64.9548 24.5474H61.693V22.9362C61.693 21.892 61.2785 20.8912 60.5404 20.1531C59.8023 19.4146 58.801 19 57.7568 19C56.7131 19 55.7119 19.4146 54.9737 20.1531C54.2356 20.8912 53.8211 21.892 53.8211 22.9362V24.5474H27.2824V22.9362C27.2824 21.892 26.8678 20.8912 26.1297 20.1531C25.3916 19.4146 24.3904 19 23.3466 19C22.3024 19 21.3012 19.4146 20.5631 20.1531C19.825 20.8912 19.4104 21.892 19.4104 22.9362V24.5474H16.1487C14.4117 24.5474 13 26.0433 13 27.88V60.68V60.6795C13.0005 61.5069 13.3295 62.3003 13.9143 62.8851C14.4995 63.4699 15.2926 63.7989 16.1198 63.7998H64.9836C65.8114 63.7989 66.6049 63.4694 67.1901 62.8842C67.7749 62.2985 68.1035 61.5046 68.1035 60.6772V27.8772C68.1035 26.0428 66.6918 24.5473 64.9548 24.5473L64.9548 24.5474ZM67.0542 60.4622C67.0542 61.722 66.112 62.7451 64.9548 62.7451L16.1484 62.7446C14.9911 62.7446 14.0489 61.7215 14.0489 60.4618L14.0494 34.0519H67.0542L67.0542 60.4622ZM14.0494 33.0016V27.8793C14.0494 26.6195 14.9916 25.5964 16.1488 25.5964H20.4598V22.936C20.4603 22.1704 20.7646 21.4364 21.3059 20.8956C21.8477 20.3547 22.5817 20.0509 23.3472 20.0513C24.1123 20.0513 24.8463 20.3556 25.3876 20.897C25.9312 21.436 26.2355 22.1704 26.2323 22.936V25.5964H54.8714V22.936C54.8719 22.1704 55.1762 21.4364 55.7175 20.8956C56.2593 20.3547 56.9933 20.0509 57.7588 20.0513C58.5239 20.0513 59.2579 20.3556 59.7992 20.8969C60.3428 21.436 60.6471 22.1704 60.6439 22.9359V25.5964H64.9554C66.1126 25.5964 67.0548 26.6195 67.0548 27.8792L67.0543 33.0015L14.0494 33.0016Z" fill="#014E62"/>
<path d="M35.7886 59.1678C35.1429 59.1706 34.5228 58.9143 34.0671 58.4567L27.245 51.6346C26.7878 51.1784 26.5311 50.5588 26.5311 49.9132C26.5311 49.2675 26.7878 48.6484 27.245 48.1917L28.6749 46.7618C29.1321 46.3069 29.7512 46.0511 30.3963 46.0511C31.0415 46.0511 31.6602 46.3069 32.1178 46.7618L35.7912 50.4353L48.9874 37.2391C49.4436 36.782 50.0632 36.5253 50.7088 36.5253C51.3545 36.5253 51.9736 36.782 52.4302 37.2391L53.8602 38.6691C54.3164 39.1257 54.5726 39.7449 54.5726 40.3905C54.5726 41.0361 54.3164 41.6553 53.8602 42.1119L37.5106 58.4545C37.0553 58.9126 36.4352 59.1697 35.7891 59.1679L35.7886 59.1678ZM30.3963 47.0974C30.0294 47.0965 29.677 47.242 29.4176 47.5015L27.9876 48.9314C27.4472 49.4732 27.4472 50.3499 27.9876 50.8917L34.8098 57.7139C35.3511 58.2525 36.226 58.2525 36.7673 57.7139L53.1146 41.3666C53.6546 40.8257 53.6546 39.9499 53.1146 39.409L51.6847 37.9868C51.4257 37.7264 51.0733 37.58 50.7059 37.58C50.3384 37.58 49.9861 37.7264 49.7271 37.9868L49.3546 37.6143L49.7349 37.9868L35.796 51.9221L31.367 47.5009C31.1094 47.2433 30.7602 47.0977 30.396 47.0968L30.3963 47.0974Z" fill="#014E62"/>
</svg>
