<svg width="46" height="27" viewBox="0 0 46 27" fill="none" xmlns="http://www.w3.org/2000/svg">
<path d="M45.9992 12.3249C45.9992 5.52911 39.4304 0 31.355 0C28.3339 0 25.4555 0.766831 22.9996 2.20893C20.628 0.81853 17.7501 0 14.6442 0C6.56808 0 0 5.52911 0 12.3249C0 14.9431 0.954912 17.4253 2.76142 19.5304L1.88401 26.2031C1.85138 26.4564 1.96831 26.7034 2.18267 26.8398C2.28646 26.9046 2.41018 26.9373 2.52712 26.9373C2.65039 26.9373 2.77411 26.9046 2.88424 26.8335L8.17957 23.3837C10.1741 24.209 12.4025 24.644 14.6442 24.644C17.75 24.644 20.6278 23.8255 22.9995 22.4351C25.4619 23.8777 28.3339 24.644 31.3549 24.644C33.5965 24.644 35.8249 24.2085 37.8195 23.3837L43.1148 26.8335C43.2254 26.9051 43.3487 26.9373 43.472 26.9373C43.5952 26.9373 43.7122 26.9046 43.8164 26.8398C44.0308 26.7034 44.1477 26.4564 44.1151 26.2031L43.2381 19.5304C45.045 17.4252 46 14.9367 46 12.3249H45.9992ZM8.43266 22.0771C8.22463 21.9602 7.97129 21.9733 7.76327 22.1029L3.35806 24.9749L4.09225 19.4068C4.11809 19.2183 4.05962 19.0302 3.93001 18.887C2.20826 16.9767 1.29865 14.7093 1.29865 12.325C1.29865 6.24382 7.28233 1.29934 14.6434 1.29934C22.0045 1.29934 27.9882 6.24382 27.9882 12.325C27.9882 18.4061 21.9977 23.3443 14.6434 23.3443C12.4798 23.3443 10.3293 22.9088 8.43222 22.0771L8.43266 22.0771ZM42.6404 24.975L38.2352 22.103C38.0339 21.9729 37.7869 21.9666 37.5789 22.0703C35.6755 22.902 33.5246 23.3439 31.3546 23.3439C28.7949 23.3439 26.3453 22.7525 24.2143 21.6353C27.3134 19.3742 29.2821 16.0413 29.2821 12.325C29.2821 8.60875 27.3134 5.27534 24.2143 3.01478C26.3453 1.89083 28.7948 1.30614 31.3546 1.30614C38.7093 1.30614 44.6994 6.25062 44.6994 12.3318C44.6994 14.7161 43.7898 16.9902 42.0744 18.9005C41.9443 19.0433 41.8859 19.2318 41.9121 19.4204L42.6404 24.975Z" fill="#014E62"/>
<path d="M9.84229 11.1101C9.1729 11.1101 8.6272 11.6558 8.6272 12.3252C8.6272 12.9946 9.17286 13.5403 9.84229 13.5403C10.5117 13.5403 11.0574 12.9946 11.0574 12.3252C11.0569 11.6558 10.5113 11.1101 9.84229 11.1101Z" fill="#014E62"/>
<path d="M14.6433 11.1101C13.9739 11.1101 13.4282 11.6558 13.4282 12.3252C13.4282 12.9946 13.9738 13.5403 14.6433 13.5403C15.3127 13.5403 15.8583 12.9946 15.8583 12.3252C15.8583 11.6558 15.3127 11.1101 14.6433 11.1101Z" fill="#014E62"/>
<path d="M19.4454 11.1101C18.776 11.1101 18.2303 11.6558 18.2303 12.3252C18.2303 12.9946 18.7759 13.5403 19.4454 13.5403C20.1148 13.5403 20.6605 12.9946 20.6605 12.3252C20.6605 11.6558 20.1148 11.1101 19.4454 11.1101Z" fill="#014E62"/>
<path d="M31.355 11.1101C30.6856 11.1101 30.1399 11.6558 30.1399 12.3252C30.1399 12.9946 30.6856 13.5403 31.355 13.5403C32.0244 13.5403 32.5701 12.9946 32.5701 12.3252C32.5701 11.6558 32.0244 11.1101 31.355 11.1101Z" fill="#014E62"/>
<path d="M36.1559 11.1101C35.4866 11.1101 34.9409 11.6558 34.9409 12.3252C34.9409 12.9946 35.4865 13.5403 36.1559 13.5403C36.8253 13.5403 37.371 12.9946 37.371 12.3252C37.371 11.6558 36.8317 11.1101 36.1559 11.1101Z" fill="#014E62"/>
</svg>
