<svg width="30" height="30" viewBox="0 0 30 30" fill="none" xmlns="http://www.w3.org/2000/svg">
<g clip-path="url(#clip0_165_321)">
<path fill-rule="evenodd" clip-rule="evenodd" d="M25 18.75C25 19.44 24.44 20 23.75 20C23.06 20 22.5 19.44 22.5 18.75C22.5 18.06 23.06 17.5 23.75 17.5C24.44 17.5 25 18.06 25 18.75ZM21.25 18.75C21.25 19.44 20.69 20 20 20C19.31 20 18.75 19.44 18.75 18.75C18.75 18.06 19.31 17.5 20 17.5C20.69 17.5 21.25 18.06 21.25 18.75ZM17.5 18.75C17.5 19.44 16.94 20 16.25 20C15.56 20 15 19.44 15 18.75C15 18.06 15.56 17.5 16.25 17.5C16.94 17.5 17.5 18.06 17.5 18.75ZM24.2688 24.9325C23.0188 25.2525 21.7825 25.535 20.1138 25.535C15.7825 25.535 11.25 22.9538 11.25 18.7563C11.25 14.8463 15.175 11.6663 20 11.6663C24.805 11.6663 28.75 14.8438 28.75 18.7563C28.75 20.745 27.9425 21.915 26.8987 23.165L27.9475 26.5225L24.2688 24.9325ZM7.5525 20.7137L2.06625 23.0837L3.63625 18.0688C2.235 16.3925 1.25 14.7375 1.25 12.195C1.25 6.84875 6.5775 2.5 13.125 2.5C19.3975 2.5 24.535 6.4925 24.9587 11.5275C23.4712 10.82 21.77 10.4163 20 10.4163C14.7513 10.4163 10 13.9125 10 18.7563C10 19.6462 10.1838 20.5063 10.5138 21.3175C9.3225 21.16 8.58125 20.9775 7.5525 20.7137ZM30 18.7563C30 16.0413 28.5012 13.7375 26.2475 12.2437L26.25 12.195C26.25 5.8375 20.015 1.25 13.125 1.25C6.1925 1.25 0 5.8725 0 12.195C0 14.4375 0.8075 16.64 2.23875 18.3475L0.05875 25.3125L7.65625 22.0312C8.88375 22.3475 10.0713 22.54 11.2188 22.6425C12.865 25.0837 16.0637 26.785 20.1138 26.785C21.3875 26.785 22.745 26.6162 24.1663 26.25L29.955 28.75L28.295 23.4437C29.3837 22.1412 30 20.4638 30 18.7563Z" fill="#014E62"/>
</g>
<defs>
<clipPath id="clip0_165_321">
<rect width="30" height="30" fill="white"/>
</clipPath>
</defs>
</svg>
