<svg width="109" height="33" viewBox="0 0 109 33" fill="none" xmlns="http://www.w3.org/2000/svg">
<g clip-path="url(#clip0_16_327)">
<path d="M20.887 4.33813C17.2365 4.33813 14.268 7.30668 14.268 10.9572C14.268 11.1765 14.3228 11.3911 14.3443 11.6057C9.83066 11.1741 5.83922 8.99959 3.12818 5.67338C3.00181 5.51363 2.80629 5.42779 2.60124 5.4421C2.39857 5.45641 2.21735 5.57324 2.11721 5.74968C1.54734 6.72966 1.22068 7.85747 1.22068 9.06874C1.22068 10.5351 1.74525 11.8775 2.55593 12.9791C2.39857 12.91 2.22689 12.8718 2.07906 12.7884C1.89069 12.6882 1.66418 12.693 1.48058 12.8027C1.29698 12.9123 1.18492 13.1103 1.18253 13.3225V13.3988C1.18253 15.6472 2.34611 17.6 4.06286 18.797C4.04378 18.7946 4.02471 18.8018 4.00563 18.797C3.79581 18.7612 3.5836 18.8351 3.44292 18.9949C3.30224 19.1546 3.25694 19.3764 3.31893 19.5791C4.00087 21.6988 5.74146 23.3178 7.89693 23.9091C6.18018 24.9296 4.18923 25.5305 2.04091 25.5305C1.57596 25.5305 1.13008 25.5066 0.686584 25.4542C0.400459 25.416 0.126255 25.5829 0.0308807 25.8547C-0.0668787 26.1266 0.0404182 26.4294 0.286009 26.5796C3.03996 28.3464 6.30894 29.3836 9.82351 29.3836C15.5198 29.3836 19.9881 27.004 22.9853 23.6039C25.9824 20.2038 27.5442 15.7879 27.5442 11.6629C27.5442 11.4889 27.5299 11.3196 27.5251 11.1479C28.6434 10.2919 29.6424 9.2881 30.4245 8.11498C30.5795 7.88847 30.5628 7.58565 30.384 7.37583C30.2075 7.166 29.9095 7.10163 29.6615 7.21846C29.3468 7.35914 28.9796 7.37344 28.6505 7.48551C29.0845 6.90611 29.4565 6.2814 29.6806 5.57801C29.7569 5.33719 29.6734 5.07252 29.4755 4.91515C29.2776 4.76017 29.001 4.74109 28.7841 4.87223C27.7421 5.48979 26.5881 5.92374 25.3696 6.18841C24.187 5.08206 22.63 4.33813 20.887 4.33813ZM20.887 5.55893C22.444 5.55893 23.8508 6.22418 24.8355 7.27568C24.9834 7.42828 25.2003 7.49266 25.4078 7.44736C26.2042 7.28999 26.96 7.05871 27.6968 6.76066C27.2724 7.33291 26.7478 7.82171 26.1326 8.19128C25.8537 8.32719 25.7225 8.64908 25.8251 8.94236C25.9252 9.23326 26.2304 9.40255 26.5332 9.33578C27.1436 9.26187 27.6872 9.01389 28.269 8.85891C27.7469 9.42401 27.1746 9.93426 26.5523 10.3849C26.383 10.5089 26.29 10.7092 26.3043 10.919C26.3138 11.167 26.3234 11.4126 26.3234 11.6629C26.3234 15.4779 24.8594 19.6196 22.0697 22.7837C19.2799 25.9477 15.1836 28.1628 9.82351 28.1628C7.38906 28.1628 5.09052 27.6239 3.01373 26.675C5.58886 26.4771 7.9637 25.5662 9.88073 24.0617C10.081 23.9019 10.1597 23.6349 10.0786 23.3917C9.99757 23.1485 9.77344 22.9816 9.51831 22.9744C7.5059 22.9386 5.82014 21.7679 4.92123 20.1132C4.95462 20.1132 4.98323 20.1132 5.01661 20.1132C5.61986 20.1132 6.21595 20.0369 6.77151 19.8843C7.03856 19.8056 7.22216 19.5576 7.21262 19.2786C7.20308 18.9997 7.00518 18.7612 6.73336 18.7016C4.56119 18.2629 2.93267 16.4937 2.55593 14.2953C3.1711 14.5075 3.80058 14.6744 4.48251 14.6959C4.76148 14.7126 5.01422 14.5385 5.10006 14.2738C5.1859 14.0092 5.08099 13.7183 4.84493 13.5704C3.39523 12.6 2.44148 10.9476 2.44148 9.06874C2.44148 8.3725 2.6227 7.73348 2.86113 7.12308C5.91313 10.4731 10.1859 12.6978 15.0119 12.941C15.2027 12.9505 15.3886 12.8718 15.5126 12.7264C15.6366 12.5785 15.6843 12.383 15.6414 12.197C15.5484 11.8012 15.4888 11.3816 15.4888 10.9572C15.4888 7.96715 17.897 5.55893 20.887 5.55893Z" fill="#014E62"/>
</g>
<path d="M49.0064 3.8313C44.6313 3.8313 41.0712 7.39145 41.0712 11.7665V22.7537C41.0712 27.1287 44.6313 30.6889 49.0064 30.6889H59.9936C64.3686 30.6889 67.9288 27.1287 67.9288 22.7537V11.7665C67.9288 7.39145 64.3686 3.8313 59.9936 3.8313H49.0064ZM49.0064 5.0521H59.9936C63.7088 5.0521 66.708 8.05131 66.708 11.7665V22.7537C66.708 26.4689 63.7088 29.4681 59.9936 29.4681H49.0064C45.2912 29.4681 42.292 26.4689 42.292 22.7537V11.7665C42.292 8.05131 45.2912 5.0521 49.0064 5.0521ZM61.8248 8.7145C61.501 8.7145 61.1905 8.84312 60.9616 9.07206C60.7326 9.30101 60.604 9.61152 60.604 9.9353C60.604 10.2591 60.7326 10.5696 60.9616 10.7985C61.1905 11.0275 61.501 11.1561 61.8248 11.1561C62.1486 11.1561 62.4591 11.0275 62.688 10.7985C62.917 10.5696 63.0456 10.2591 63.0456 9.9353C63.0456 9.61152 62.917 9.30101 62.688 9.07206C62.4591 8.84312 62.1486 8.7145 61.8248 8.7145ZM54.5 10.5457C50.799 10.5457 47.7856 13.5591 47.7856 17.2601C47.7856 20.9611 50.799 23.9745 54.5 23.9745C58.201 23.9745 61.2144 20.9611 61.2144 17.2601C61.2144 13.5591 58.201 10.5457 54.5 10.5457ZM54.5 11.7665C57.5413 11.7665 59.9936 14.2188 59.9936 17.2601C59.9936 20.3014 57.5413 22.7537 54.5 22.7537C51.4587 22.7537 49.0064 20.3014 49.0064 17.2601C49.0064 14.2188 51.4587 11.7665 54.5 11.7665Z" fill="#014E62"/>
<path d="M83.3632 1.83813C82.3332 1.83813 81.4316 2.13107 80.7714 2.66432C80.1112 3.19757 79.708 3.98766 79.708 4.85079C79.708 6.52547 81.2077 7.82173 83.1903 7.89922C83.2463 7.91712 83.3045 7.92676 83.3632 7.92783C84.4336 7.92783 85.3447 7.61407 85.9956 7.05872C86.6464 6.50337 87.0185 5.70271 87.0185 4.85079C87.0184 4.83966 87.018 4.82853 87.0173 4.81741C86.9232 3.13216 85.4232 1.83813 83.3632 1.83813ZM83.3632 3.04463C84.9558 3.04463 85.7413 3.82659 85.8084 4.86629C85.804 5.37431 85.6074 5.80585 85.2135 6.14193C84.8152 6.48173 84.2003 6.72133 83.3632 6.72133C81.775 6.72133 80.9145 5.85912 80.9145 4.85079C80.9145 4.34663 81.1216 3.93213 81.5296 3.60257C81.9376 3.27302 82.562 3.04463 83.3632 3.04463ZM80.3112 9.15578C80.1493 9.1558 79.9941 9.22011 79.8796 9.33458C79.7651 9.44905 79.7008 9.6043 79.7008 9.76618V27.4678C79.7008 27.6297 79.7651 27.7849 79.8796 27.8994C79.9941 28.0139 80.1493 28.0782 80.3112 28.0782H86.4152C86.5771 28.0782 86.7323 28.0139 86.8468 27.8994C86.9613 27.7849 87.0256 27.6297 87.0256 27.4678V21.7691V9.76618C87.0256 9.6043 86.9613 9.44905 86.8468 9.33458C86.7323 9.22011 86.5771 9.1558 86.4152 9.15578H80.3112ZM89.4672 9.15578C89.3053 9.1558 89.1501 9.22011 89.0356 9.33458C88.9211 9.44905 88.8568 9.6043 88.8568 9.76618V27.4678C88.8568 27.6297 88.9211 27.7849 89.0356 27.8994C89.1501 28.0139 89.3053 28.0782 89.4672 28.0782H95.5712C95.7331 28.0782 95.8883 28.0139 96.0028 27.8994C96.1173 27.7849 96.1816 27.6297 96.1816 27.4678V17.7014V17.5488V17.3962C96.1816 16.2093 97.1311 15.2598 98.318 15.2598C99.5049 15.2598 100.454 16.2093 100.454 17.3962V27.4678C100.454 27.6297 100.519 27.7849 100.633 27.8994C100.748 28.0139 100.903 28.0782 101.065 28.0782H107.169C107.331 28.0782 107.486 28.0139 107.6 27.8994C107.715 27.7849 107.779 27.6297 107.779 27.4678V17.091C107.779 14.5722 107.039 12.5767 105.792 11.2159C104.544 9.85502 102.804 9.15578 100.935 9.15578C98.5517 9.15578 97.1104 10.0263 96.1816 10.7438V9.76618C96.1816 9.6043 96.1173 9.44905 96.0028 9.33458C95.8883 9.22011 95.7331 9.1558 95.5712 9.15578H89.4672ZM80.9216 10.3766H85.8048V21.7691V26.8574H80.9216V10.3766ZM90.0776 10.3766H94.9608V11.9872C94.9608 12.1107 94.9983 12.2313 95.0684 12.3331C95.1384 12.4348 95.2376 12.5129 95.3529 12.5571C95.4683 12.6013 95.5943 12.6094 95.7144 12.5805C95.8344 12.5515 95.9429 12.4868 96.0254 12.395C96.0254 12.395 97.8357 10.3766 100.935 10.3766C102.505 10.3766 103.882 10.9395 104.892 12.0409C105.901 13.1422 106.558 14.809 106.558 17.091V26.8574H101.675V17.3962C101.676 17.31 101.659 17.2247 101.624 17.1458C101.488 15.421 100.076 14.039 98.318 14.039C96.4712 14.039 94.9608 15.5494 94.9608 17.3962V17.5488V17.7014V26.8574H90.0776V10.3766Z" fill="#014E62"/>
<defs>
<clipPath id="clip0_16_327">
<rect width="30.52" height="30.52" fill="white" transform="translate(0 1)"/>
</clipPath>
</defs>
</svg>
