<svg width="102" height="34" viewBox="0 0 102 34" fill="none" xmlns="http://www.w3.org/2000/svg">
<g clip-path="url(#clip0_144_200)">
<path d="M20.5311 5.28125C16.9428 5.28125 14.0248 8.19922 14.0248 11.7875C14.0248 12.0031 14.0787 12.2141 14.0998 12.425C9.66311 12.0008 5.73967 9.86328 3.07483 6.59375C2.95061 6.43672 2.75842 6.35234 2.55686 6.36641C2.35764 6.38047 2.17952 6.49531 2.08108 6.66875C1.52092 7.63203 1.19983 8.74062 1.19983 9.93125C1.19983 11.3727 1.71546 12.6922 2.51233 13.775C2.35764 13.707 2.18889 13.6695 2.04358 13.5875C1.85842 13.4891 1.63577 13.4937 1.4553 13.6016C1.27483 13.7094 1.16467 13.9039 1.16233 14.1125V14.1875C1.16233 16.3977 2.30608 18.3172 3.99358 19.4937C3.97483 19.4914 3.95608 19.4984 3.93733 19.4937C3.73108 19.4586 3.52249 19.5312 3.38421 19.6883C3.24592 19.8453 3.20139 20.0633 3.26233 20.2625C3.93264 22.3461 5.64358 23.9375 7.76233 24.5187C6.07483 25.5219 4.1178 26.1125 2.00608 26.1125C1.54905 26.1125 1.11077 26.0891 0.67483 26.0375C0.39358 26 0.124049 26.1641 0.0302993 26.4312C-0.0657945 26.6984 0.0396743 26.9961 0.28108 27.1437C2.98811 28.8805 6.20139 29.9 9.65608 29.9C15.2553 29.9 19.6475 27.5609 22.5936 24.2187C25.5397 20.8766 27.0748 16.5359 27.0748 12.4812C27.0748 12.3102 27.0608 12.1437 27.0561 11.975C28.1553 11.1336 29.1373 10.1469 29.9061 8.99375C30.0584 8.77109 30.042 8.47344 29.8662 8.26719C29.6928 8.06094 29.3998 7.99766 29.1561 8.1125C28.8467 8.25078 28.4858 8.26484 28.1623 8.375C28.5889 7.80547 28.9545 7.19141 29.1748 6.5C29.2498 6.26328 29.1678 6.00312 28.9733 5.84844C28.7787 5.69609 28.5069 5.67734 28.2936 5.80625C27.2694 6.41328 26.135 6.83984 24.9373 7.1C23.7748 6.0125 22.2444 5.28125 20.5311 5.28125ZM20.5311 6.48125C22.0616 6.48125 23.4444 7.13516 24.4123 8.16875C24.5576 8.31875 24.7709 8.38203 24.9748 8.3375C25.7576 8.18281 26.5006 7.95547 27.2248 7.6625C26.8076 8.225 26.292 8.70547 25.6873 9.06875C25.4131 9.20234 25.2842 9.51875 25.385 9.80703C25.4834 10.093 25.7834 10.2594 26.0811 10.1937C26.6811 10.1211 27.2155 9.87734 27.7873 9.725C27.2741 10.2805 26.7116 10.782 26.0998 11.225C25.9334 11.3469 25.842 11.5437 25.8561 11.75C25.8655 11.9937 25.8748 12.2352 25.8748 12.4812C25.8748 16.2312 24.4358 20.3023 21.6936 23.4125C18.9514 26.5227 14.9248 28.7 9.65608 28.7C7.26311 28.7 5.00374 28.1703 2.96233 27.2375C5.49358 27.043 7.82796 26.1477 9.71233 24.6687C9.90921 24.5117 9.98655 24.2492 9.90686 24.0102C9.82717 23.7711 9.60686 23.607 9.35608 23.6C7.37796 23.5648 5.72092 22.4141 4.83733 20.7875C4.87014 20.7875 4.89827 20.7875 4.93108 20.7875C5.52405 20.7875 6.10999 20.7125 6.65608 20.5625C6.91858 20.4852 7.09905 20.2414 7.08967 19.9672C7.0803 19.693 6.88577 19.4586 6.61858 19.4C4.48342 18.9687 2.88264 17.2297 2.51233 15.0687C3.11702 15.2773 3.73577 15.4414 4.40608 15.4625C4.6803 15.4789 4.92874 15.3078 5.01311 15.0477C5.09749 14.7875 4.99436 14.5016 4.76233 14.3562C3.33733 13.4023 2.39983 11.7781 2.39983 9.93125C2.39983 9.24687 2.57796 8.61875 2.81233 8.01875C5.81233 11.3117 10.0123 13.4984 14.7561 13.7375C14.9436 13.7469 15.1264 13.6695 15.2483 13.5266C15.3701 13.3812 15.417 13.1891 15.3748 13.0062C15.2834 12.6172 15.2248 12.2047 15.2248 11.7875C15.2248 8.84844 17.592 6.48125 20.5311 6.48125Z" fill="#014E62"/>
</g>
<path d="M45.6 5.80005C41.2995 5.80005 37.8 9.29954 37.8 13.6V24.4C37.8 28.7006 41.2995 32.2 45.6 32.2H56.4C60.7005 32.2 64.2 28.7006 64.2 24.4V13.6C64.2 9.29954 60.7005 5.80005 56.4 5.80005H45.6ZM45.6 7.00005H56.4C60.0519 7.00005 63 9.94816 63 13.6V24.4C63 28.0519 60.0519 31 56.4 31H45.6C41.9481 31 39 28.0519 39 24.4V13.6C39 9.94816 41.9481 7.00005 45.6 7.00005ZM58.2 10.6C57.8817 10.6 57.5765 10.7265 57.3515 10.9515C57.1264 11.1766 57 11.4818 57 11.8C57 12.1183 57.1264 12.4235 57.3515 12.6486C57.5765 12.8736 57.8817 13 58.2 13C58.5182 13 58.8235 12.8736 59.0485 12.6486C59.2736 12.4235 59.4 12.1183 59.4 11.8C59.4 11.4818 59.2736 11.1766 59.0485 10.9515C58.8235 10.7265 58.5182 10.6 58.2 10.6ZM51 12.4C47.362 12.4 44.4 15.3621 44.4 19C44.4 22.638 47.362 25.6 51 25.6C54.638 25.6 57.6 22.638 57.6 19C57.6 15.3621 54.638 12.4 51 12.4ZM51 13.6C53.9894 13.6 56.4 16.0106 56.4 19C56.4 21.9895 53.9894 24.4 51 24.4C48.0105 24.4 45.6 21.9895 45.6 19C45.6 16.0106 48.0105 13.6 51 13.6Z" fill="#014E62"/>
<path d="M83.25 10.5H83.75V10V5.76875C83.75 3.95792 84.225 2.67379 85.1465 1.83236C86.0773 0.982479 87.5545 0.5 89.74 0.5H94V5.75H90.8937C90.2709 5.75 89.7168 5.87388 89.3669 6.33195C89.0495 6.74749 89 7.3257 89 7.91625V10V10.5H89.5H93.9533L93.5953 14.5H89.5H89V15V29.5H83.75V15V14.5H83.25H80V10.5H83.25Z" stroke="#014E62"/>
<defs>
<clipPath id="clip0_144_200">
<rect width="30" height="30" fill="white" transform="translate(0 2)"/>
</clipPath>
</defs>
</svg>
