<svg width="91" height="31" viewBox="0 0 91 31" fill="none" xmlns="http://www.w3.org/2000/svg">
<path d="M41.222 26.136C43.738 26.136 45.472 24.827 46.271 22.617L44.605 21.393C44.248 23.093 43.194 24.317 41.239 24.317C38.893 24.317 37.788 22.634 37.788 20.288C37.788 17.925 38.893 16.259 41.239 16.259C43.194 16.259 44.248 17.466 44.605 19.183L46.271 17.959C45.472 15.732 43.738 14.44 41.222 14.44C37.72 14.44 35.748 17.007 35.748 20.288C35.748 23.569 37.72 26.136 41.222 26.136ZM49.7305 26V21.036H55.2045V26H57.1255V14.61H55.2045V19.336H49.7305V14.61H47.8095V26H49.7305ZM59.9019 26L60.9899 23.127H65.8009L66.8889 26H68.9969L64.5429 14.61H62.3329L57.8789 26H59.9019ZM62.7919 18.384L63.4039 16.327L64.0159 18.384L65.1719 21.461H61.6189L62.7919 18.384ZM71.6778 26V21.58H73.0718C74.1428 21.58 74.7208 21.852 75.1458 22.617L77.1178 26H79.3278L77.3898 22.719C76.9818 22.005 76.5228 21.58 75.8428 21.376C77.6278 21.172 78.9368 20.05 78.9368 18.146C78.9368 15.8 77.2028 14.61 74.8908 14.61H69.7568V26H71.6778ZM74.7038 16.31C75.9108 16.31 76.9478 16.752 76.9478 18.197C76.9478 19.574 75.9108 20.016 74.7038 20.016H71.6778V16.31H74.7038ZM81.3346 26L82.4226 23.127H87.2336L88.3216 26H90.4296L85.9756 14.61H83.7656L79.3116 26H81.3346ZM84.2246 18.384L84.8366 16.327L85.4486 18.384L86.6046 21.461H83.0516L84.2246 18.384Z" fill="white"/>
<mask id="path-2-inside-1_178_346" fill="white">
<path d="M20.5539 20.5539C18.8171 22.2906 16.5908 23.4547 14.1735 23.8899C11.7563 24.325 9.26373 24.0105 7.03033 22.9886C4.79693 21.9666 2.92949 20.286 1.67858 18.1723C0.42766 16.0586 -0.146903 13.6129 0.0319734 11.1633C0.21085 8.71371 1.13461 6.3774 2.67932 4.46785C4.22403 2.55829 6.31579 1.16683 8.67396 0.480141C11.0321 -0.206547 13.5439 -0.155608 15.8723 0.626123C18.2007 1.40785 20.2343 2.88298 21.7003 4.8536L19.4464 6.53043C18.3224 5.01962 16.7633 3.88868 14.9782 3.28935C13.1931 2.69002 11.2673 2.65096 9.4594 3.17743C7.65145 3.70389 6.04776 4.77069 4.86347 6.23469C3.67919 7.69869 2.97097 9.48987 2.83383 11.3679C2.69669 13.2459 3.13719 15.121 4.09623 16.7415C5.05528 18.362 6.48698 19.6505 8.19927 20.434C9.91156 21.2175 11.8225 21.4586 13.6758 21.125C15.529 20.7913 17.2359 19.8989 18.5674 18.5674L20.5539 20.5539Z"/>
</mask>
<path d="M20.5539 20.5539C18.8171 22.2906 16.5908 23.4547 14.1735 23.8899C11.7563 24.325 9.26373 24.0105 7.03033 22.9886C4.79693 21.9666 2.92949 20.286 1.67858 18.1723C0.42766 16.0586 -0.146903 13.6129 0.0319734 11.1633C0.21085 8.71371 1.13461 6.3774 2.67932 4.46785C4.22403 2.55829 6.31579 1.16683 8.67396 0.480141C11.0321 -0.206547 13.5439 -0.155608 15.8723 0.626123C18.2007 1.40785 20.2343 2.88298 21.7003 4.8536L19.4464 6.53043C18.3224 5.01962 16.7633 3.88868 14.9782 3.28935C13.1931 2.69002 11.2673 2.65096 9.4594 3.17743C7.65145 3.70389 6.04776 4.77069 4.86347 6.23469C3.67919 7.69869 2.97097 9.48987 2.83383 11.3679C2.69669 13.2459 3.13719 15.121 4.09623 16.7415C5.05528 18.362 6.48698 19.6505 8.19927 20.434C9.91156 21.2175 11.8225 21.4586 13.6758 21.125C15.529 20.7913 17.2359 19.8989 18.5674 18.5674L20.5539 20.5539Z" fill="white" stroke="white" stroke-width="0.546584" mask="url(#path-2-inside-1_178_346)"/>
<rect x="17.8661" y="10.0981" width="3.10714" height="19.4196" fill="white"/>
<rect x="24.8571" y="10.0981" width="3.10714" height="19.4196" fill="white"/>
<rect x="20.9732" y="21.75" width="3.88393" height="3.88393" rx="1.94196" transform="rotate(-90 20.9732 21.75)" fill="white"/>
</svg>
