<svg width="112" height="39" viewBox="0 0 112 39" fill="none" xmlns="http://www.w3.org/2000/svg">
<path d="M51.5462 32.1649C54.5977 32.1649 56.7007 30.5774 57.6698 27.897L55.6492 26.4125C55.2162 28.4743 53.9379 29.9588 51.5668 29.9588C48.7215 29.9588 47.3814 27.9176 47.3814 25.0723C47.3814 22.2064 48.7215 20.1858 51.5668 20.1858C53.9379 20.1858 55.2162 21.6497 55.6492 23.7322L57.6698 22.2477C56.7007 19.5467 54.5977 17.9797 51.5462 17.9797C47.2989 17.9797 44.9072 21.093 44.9072 25.0723C44.9072 29.0516 47.2989 32.1649 51.5462 32.1649ZM61.8656 32V25.9795H68.5046V32H70.8344V18.1859H68.5046V23.9177H61.8656V18.1859H59.5357V32H61.8656ZM74.2018 32L75.5213 28.5155H81.3562L82.6758 32H85.2324L79.8305 18.1859H77.1501L71.7482 32H74.2018ZM77.7068 22.7631L78.4491 20.2683L79.1913 22.7631L80.5934 26.495H76.2842L77.7068 22.7631ZM88.4838 32V26.6393H90.1745C91.4734 26.6393 92.1744 26.9692 92.6899 27.897L95.0816 32H97.7619L95.4115 28.0207C94.9166 27.1548 94.3599 26.6393 93.5352 26.3919C95.7001 26.1445 97.2877 24.7837 97.2877 22.4745C97.2877 19.6292 95.1847 18.1859 92.3806 18.1859H86.154V32H88.4838ZM92.1538 20.2477C93.6177 20.2477 94.8754 20.7838 94.8754 22.5363C94.8754 24.2064 93.6177 24.7424 92.1538 24.7424H88.4838V20.2477H92.1538ZM100.196 32L101.515 28.5155H107.35L108.67 32H111.226L105.825 18.1859H103.144L97.7423 32H100.196ZM103.701 22.7631L104.443 20.2683L105.185 22.7631L106.587 26.495H102.278L103.701 22.7631Z" fill="#014E62"/>
<mask id="path-2-inside-1_144_214" fill="white">
<path d="M26.4602 26.4602C24.2244 28.696 21.3582 30.1945 18.2464 30.7548C15.1345 31.315 11.9257 30.9101 9.05054 29.5945C6.17535 28.2788 3.7713 26.1153 2.16093 23.3942C0.550551 20.6732 -0.189117 17.5247 0.0411612 14.3712C0.271439 11.2176 1.46065 8.20999 3.44924 5.75171C5.43783 3.29343 8.13067 1.50212 11.1665 0.618112C14.2023 -0.265899 17.4358 -0.200322 20.4333 0.806044C23.4308 1.81241 26.0488 3.71142 27.9361 6.24831L25.0344 8.40699C23.5875 6.46203 21.5803 5.00611 19.2822 4.23456C16.9842 3.46301 14.5051 3.41273 12.1776 4.09048C9.85014 4.76823 7.78562 6.14157 6.26102 8.02627C4.73643 9.91096 3.8247 12.2168 3.64815 14.6345C3.4716 17.0522 4.03868 19.4661 5.27331 21.5523C6.50794 23.6385 8.35106 25.2972 10.5554 26.3058C12.7597 27.3145 15.2198 27.6249 17.6056 27.1954C19.9914 26.7659 22.1887 25.617 23.9028 23.9028L26.4602 26.4602Z"/>
</mask>
<path d="M26.4602 26.4602C24.2244 28.696 21.3582 30.1945 18.2464 30.7548C15.1345 31.315 11.9257 30.9101 9.05054 29.5945C6.17535 28.2788 3.7713 26.1153 2.16093 23.3942C0.550551 20.6732 -0.189117 17.5247 0.0411612 14.3712C0.271439 11.2176 1.46065 8.20999 3.44924 5.75171C5.43783 3.29343 8.13067 1.50212 11.1665 0.618112C14.2023 -0.265899 17.4358 -0.200322 20.4333 0.806044C23.4308 1.81241 26.0488 3.71142 27.9361 6.24831L25.0344 8.40699C23.5875 6.46203 21.5803 5.00611 19.2822 4.23456C16.9842 3.46301 14.5051 3.41273 12.1776 4.09048C9.85014 4.76823 7.78562 6.14157 6.26102 8.02627C4.73643 9.91096 3.8247 12.2168 3.64815 14.6345C3.4716 17.0522 4.03868 19.4661 5.27331 21.5523C6.50794 23.6385 8.35106 25.2972 10.5554 26.3058C12.7597 27.3145 15.2198 27.6249 17.6056 27.1954C19.9914 26.7659 22.1887 25.617 23.9028 23.9028L26.4602 26.4602Z" fill="#014E62" stroke="#014E62" stroke-width="0.703649" mask="url(#path-2-inside-1_144_214)"/>
<rect x="23" y="13" width="4" height="25" fill="#014E62"/>
<rect x="32" y="13" width="4" height="25" fill="#014E62"/>
<rect x="27" y="28" width="5" height="5" rx="2.5" transform="rotate(-90 27 28)" fill="#014E62"/>
</svg>
