<svg width="82" height="82" viewBox="0 0 82 82" fill="none" xmlns="http://www.w3.org/2000/svg">
<path d="M16.8166 32.5163H30.42L30.6814 32.7198C29.8428 33.1562 29.0772 33.7212 28.4133 34.3946C26.7406 36.141 25.8065 38.4659 25.8065 40.8842C25.8065 43.3024 26.7406 45.6274 28.4133 47.3737L39.912 59.2159C40.0658 59.3745 40.2773 59.4638 40.4978 59.4638C40.7188 59.4638 40.9302 59.3745 41.0841 59.2159L44.5833 55.621V65.183C44.5833 65.3996 44.6694 65.6074 44.8225 65.7605C44.9756 65.9137 45.1834 65.9997 45.4 65.9997H64.1833C64.3999 65.9997 64.6077 65.9137 64.7608 65.7605C64.914 65.6074 65 65.3996 65 65.183V51.2997C65 51.0831 64.914 50.8753 64.7608 50.7222C64.6077 50.5691 64.3999 50.483 64.1833 50.483H50.58L50.0043 50.0353L52.5867 47.3797C54.2598 45.6334 55.1938 43.3081 55.1938 40.8898C55.1938 38.4711 54.2598 36.1462 52.5867 34.3995C51.0273 32.7753 48.9036 31.812 46.6542 31.7085C44.4051 31.6053 42.2019 32.3698 40.5 33.8442C39.6429 33.1081 38.6523 32.5437 37.5818 32.1818L36.4167 27.5159V17.8167C36.4167 17.6001 36.3306 17.3923 36.1775 17.2392C36.0244 17.086 35.8166 17 35.6 17H16.8167C16.3657 17 16 17.3657 16 17.8167V31.7C16 31.9166 16.086 32.1244 16.2392 32.2775C16.3923 32.4306 16.6001 32.5163 16.8166 32.5163ZM63.3666 52.1163V64.3663H46.2166V55.383C46.2166 55.3159 46.2082 55.2495 46.1922 55.1846L44.3139 47.6805L49.7961 51.945C49.9401 52.0565 50.1176 52.117 50.2999 52.1163L63.3666 52.1163ZM39.9138 35.5384C40.068 35.6959 40.2795 35.7842 40.5001 35.7834C40.7203 35.7842 40.9314 35.6956 41.0856 35.5384C42.4349 34.1315 44.2998 33.336 46.2488 33.336C48.1982 33.336 50.063 34.1315 51.4124 35.5384C52.7919 36.979 53.5623 38.8963 53.5623 40.8909C53.5623 42.8856 52.7919 44.8029 51.4124 46.2434L48.7076 49.0274L43.4514 44.9382C43.1765 44.7242 42.7959 44.7085 42.5039 44.8989C42.2119 45.0892 42.0729 45.4439 42.1579 45.7819L44.1449 53.7287L40.5001 57.4785L29.5866 46.2365C28.2085 44.7964 27.4396 42.8805 27.4396 40.8874C27.4396 38.8942 28.2085 36.9783 29.5866 35.5383C30.3045 34.8003 31.1714 34.2239 32.1296 33.8477L37.5491 38.0634C37.824 38.2774 38.2046 38.2934 38.4966 38.1031C38.7887 37.9125 38.9276 37.5577 38.8426 37.2198L38.0814 34.1744C38.7598 34.5306 39.3783 34.9909 39.9138 35.5384ZM17.6333 18.6339H34.7833V27.6172C34.7833 27.6843 34.7917 27.7507 34.8077 27.8156L36.6861 35.3198L31.2012 31.0553C31.0579 30.9441 30.8815 30.8839 30.6999 30.8839H17.6333L17.6333 18.6339Z" fill="#014E62"/>
<path d="M21.7166 23.533H23.3499V25.1663H21.7166V23.533Z" fill="#014E62"/>
<path d="M24.9833 23.533H26.6166V25.1663H24.9833V23.533Z" fill="#014E62"/>
<path d="M28.25 23.533H29.8833V25.1663H28.25V23.533Z" fill="#014E62"/>
<path d="M57.6499 57.8329H59.2832V59.4662H57.6499V57.8329Z" fill="#014E62"/>
<path d="M54.3833 57.8329H56.0166V59.4662H54.3833V57.8329Z" fill="#014E62"/>
<path d="M51.1166 57.8329H52.7499V59.4662H51.1166V57.8329Z" fill="#014E62"/>
</svg>
