<svg width="82" height="82" viewBox="0 0 82 82" fill="none" xmlns="http://www.w3.org/2000/svg">
<path d="M41.3145 11C38.7346 11 36.5958 12.6505 35.7822 14.9284H30.157C29.8083 14.9284 29.5063 15.2537 29.5063 15.6024V17.555H19.6507C19.2096 17.5783 19 17.9499 19 18.2056V69.3889C19 69.7376 19.3025 70.0396 19.6512 70.0396H62.9542C63.3029 70.0396 63.6049 69.7376 63.6049 69.3889V18.2056C63.6049 17.8803 63.3029 17.555 62.9542 17.555H53.1219V15.6024C53.1219 15.2537 52.7966 14.9284 52.4479 14.9284H46.8227C46.0091 12.6505 43.8708 11 41.3138 11H41.3145ZM41.3145 12.3018C43.4528 12.3018 45.2429 13.7661 45.754 15.7653C45.8235 16.0444 46.1026 16.2535 46.3818 16.2535H51.7978V21.5067H30.8081V16.2535H36.2241C36.5032 16.2535 36.7819 16.0444 36.8519 15.7653C37.3635 13.7661 39.1532 12.3018 41.3148 12.3018H41.3145ZM20.3014 18.8801H29.5062V22.1574C29.5062 22.5056 29.8082 22.8081 30.1569 22.8081H52.448C52.7967 22.8081 53.1221 22.5061 53.1221 22.1574V18.8801H62.3036V68.7384H20.302L20.3014 18.8801ZM27.5304 28.7119C27.1584 28.7119 26.8797 29.0139 26.8797 29.3626C26.8797 29.7346 27.1588 30.0133 27.5304 30.0133H55.0742C55.4462 30.0133 55.7249 29.7341 55.7249 29.3626C55.7249 29.0143 55.4462 28.7119 55.0742 28.7119H27.5304ZM27.5304 39.2182C27.1584 39.2182 26.8797 39.4973 26.8797 39.8689C26.8797 40.2176 27.1588 40.5196 27.5304 40.5196H55.0742C55.4462 40.5196 55.7249 40.2176 55.7249 39.8689C55.7249 39.4969 55.4458 39.2182 55.0742 39.2182H27.5304ZM27.5304 49.7011C27.1584 49.7011 26.8797 50.0031 26.8797 50.3518C26.8797 50.7238 27.1588 51.0258 27.5304 51.0258H55.0742C55.4462 51.0258 55.7249 50.7238 55.7249 50.3518C55.7249 50.0031 55.4458 49.7011 55.0742 49.7011H27.5304ZM56.9344 54.9309C56.7949 54.9543 56.6786 55.0471 56.5857 55.1634L48.427 63.9038L43.6621 60.324C43.3829 60.0682 42.918 60.1149 42.6856 60.4169C42.4764 60.696 42.5693 61.1838 42.8718 61.37L48.125 65.2984C48.3808 65.4842 48.7757 65.4613 48.9848 65.2289L57.5156 56.0469C57.8876 55.6515 57.5389 54.9079 57.004 54.9313H56.9344L56.9344 54.9309ZM27.5304 61.5097C27.1584 61.5097 26.8797 61.8117 26.8797 62.1604C26.8797 62.5324 27.1588 62.8344 27.5304 62.8344H38.0133C38.3853 62.8344 38.6873 62.5324 38.6873 62.1604C38.6873 61.8117 38.3853 61.5097 38.0133 61.5097H27.5304Z" fill="#014E62"/>
</svg>
