<svg width="30" height="30" viewBox="0 0 30 30" fill="none" xmlns="http://www.w3.org/2000/svg">
<g clip-path="url(#clip0_165_323)">
<path fill-rule="evenodd" clip-rule="evenodd" d="M10.325 1.61125L8.36995 2.57625C1.1287 6.35125 11.8675 28.7562 20.0075 28.7562C20.5825 28.7562 21.1375 28.6388 21.6537 28.4013L23.5812 27.4575L19.9587 20.465L18.0337 21.4075C17.8075 21.5162 17.5537 21.575 17.2875 21.575C14.0862 21.575 8.7362 11.32 11.9862 9.58L13.9187 8.62625L10.325 1.61125ZM20.0075 30C12.9075 30 4.7312 16.1075 4.7312 7.71C4.7312 4.68625 5.77245 2.5275 7.80245 1.47L10.78 0L15.6012 9.18375L12.555 10.685C10.7562 11.65 15.5662 21.215 17.5 20.285L20.4987 18.8112L25.2687 28.0112C25.2687 28.0112 22.3187 29.4638 22.1737 29.53C21.49 29.8438 20.7625 30 20.0075 30Z" fill="#014E62"/>
</g>
<defs>
<clipPath id="clip0_165_323">
<rect width="30" height="30" fill="white"/>
</clipPath>
</defs>
</svg>
