<svg width="31" height="31" viewBox="0 0 31 31" fill="none" xmlns="http://www.w3.org/2000/svg">
<path d="M24.1073 30.4685C23.9118 30.4685 23.7157 30.4597 23.5188 30.4422C23.4852 30.4414 23.451 30.439 23.4177 30.4343C11.1964 28.7488 1.71346 19.2609 0.0474611 7.03541C0.0458205 7.01709 0.0441798 6.99959 0.0433595 6.98209C-0.502151 2.54528 4.20178 -1.19811 8.40346 0.359463C8.96893 0.550871 9.38675 1.04607 9.49609 1.65362L10.9579 9.72042C11.2158 11.0001 9.97356 11.7217 8.99356 12.1808L8.95446 12.2765C10.0728 14.2461 11.4124 16.0245 12.9445 17.5793C14.5195 19.1177 16.2749 20.432 18.2073 21.5294L18.303 21.4903C18.7613 20.5084 19.4854 19.2708 20.7634 19.5259L28.8323 20.9877C29.4385 21.0971 29.9337 21.5149 30.1243 22.0788C31.5937 26.0488 28.3172 30.581 24.1079 30.4676L24.1073 30.4685ZM23.565 28.8074C26.8916 29.2744 29.7507 25.7629 28.5758 22.6009L20.4712 21.1342C20.1737 21.4446 19.9585 21.7929 19.7925 22.1615C19.407 23.0649 18.247 23.4532 17.3999 22.9496C15.3038 21.7596 13.408 20.3309 11.7493 18.6949C10.1 17.0064 8.70045 15.1381 7.53425 13.0843C7.03058 12.2394 7.41859 11.0764 8.32231 10.6917C8.69063 10.5257 9.03841 10.3105 9.35593 10.0529L7.88754 1.94412C4.72249 0.711983 1.20912 3.59374 1.67644 6.91986C3.31899 18.3887 12.1169 27.1695 23.5647 28.8075L23.565 28.8074Z" fill="#014E62"/>
</svg>
