<svg width="82" height="82" viewBox="0 0 82 82" fill="none" xmlns="http://www.w3.org/2000/svg">
<path d="M70.4494 62.025H11.5125C11.2292 62.025 11 61.7958 11 61.5125V20.5125C11 20.2292 11.2292 20 11.5125 20H70.4494C70.7327 20 70.9619 20.2292 70.9619 20.5125V61.5125C70.9619 61.7958 70.7327 62.025 70.4494 62.025ZM12.0244 61H69.9375V21.025H12.0244V61Z" fill="#014E62"/>
<path d="M70.4494 40.2434H11.5125C11.2292 40.2434 11 40.0142 11 39.7309V29.4809C11 29.1977 11.2292 28.9684 11.5125 28.9684H70.4494C70.7327 28.9684 70.9619 29.1977 70.9619 29.4809V39.7309C70.9619 40.0142 70.7327 40.2434 70.4494 40.2434ZM12.0244 39.2184H69.9375V29.9934H12.0244V39.2184Z" fill="#014E62"/>
<path d="M51.8706 55.6184C49.1154 55.6184 46.8737 53.3767 46.8737 50.6216C46.8737 47.8665 49.1155 45.6248 51.8706 45.6248C52.8978 45.6248 53.8853 45.935 54.7264 46.5221C54.8637 46.6177 54.9456 46.7747 54.9456 46.9422C54.9456 47.1096 54.8637 47.2666 54.7264 47.3622C53.6602 48.1067 53.0237 49.3248 53.0237 50.6216C53.0237 51.9184 53.6602 53.1365 54.7264 53.8805C54.8637 53.9762 54.9456 54.1331 54.9456 54.3006C54.9456 54.4681 54.8637 54.625 54.7264 54.7206C53.8853 55.3082 52.8979 55.6184 51.8706 55.6184V55.6184ZM51.8706 46.6498C49.6806 46.6498 47.8987 48.4316 47.8987 50.6216C47.8987 52.8116 49.6806 54.5934 51.8706 54.5934C52.4526 54.5934 53.0187 54.4681 53.5375 54.2269C52.5628 53.2916 51.9986 51.9911 51.9986 50.6216C51.9986 49.2521 52.5628 47.9516 53.5375 47.0163C53.0186 46.7752 52.4526 46.6498 51.8706 46.6498V46.6498Z" fill="#014E62"/>
<path d="M56.9956 55.6184C55.9683 55.6184 54.9808 55.3082 54.1397 54.7211C52.799 53.7853 51.9987 52.2529 51.9987 50.6216C51.9987 48.9902 52.799 47.4578 54.1397 46.522C54.9808 45.9349 55.9682 45.6247 56.9956 45.6247C59.7508 45.6247 61.9924 47.8665 61.9924 50.6215C61.9924 53.3766 59.7506 55.6184 56.9956 55.6184V55.6184ZM56.9956 46.6497C56.1792 46.6497 55.3945 46.8964 54.7264 47.3627C53.6602 48.1067 53.0237 49.3248 53.0237 50.6216C53.0237 51.9183 53.6602 53.1365 54.7264 53.8805C55.3945 54.3468 56.1792 54.5934 56.9956 54.5934C59.1855 54.5934 60.9674 52.8116 60.9674 50.6216C60.9674 48.4316 59.1855 46.6497 56.9956 46.6497V46.6497Z" fill="#014E62"/>
<path d="M40.9809 47.9316H19.1994C18.9161 47.9316 18.6869 47.7023 18.6869 47.4191C18.6869 47.1358 18.9161 46.9066 19.1994 46.9066H40.9809C41.2642 46.9066 41.4934 47.1358 41.4934 47.4191C41.4934 47.7023 41.2642 47.9316 40.9809 47.9316Z" fill="#014E62"/>
<path d="M33.2928 55.6184H19.1994C18.9161 55.6184 18.6869 55.3892 18.6869 55.1059C18.6869 54.8227 18.9161 54.5934 19.1994 54.5934H33.2928C33.5761 54.5934 33.8053 54.8227 33.8053 55.1059C33.8053 55.3892 33.5761 55.6184 33.2928 55.6184Z" fill="#014E62"/>
</svg>
