<svg width="52" height="57" viewBox="0 0 52 57" fill="none" xmlns="http://www.w3.org/2000/svg">
<path d="M25.5837 0C11.5371 0 0.00205911 9.01813 0.00205911 20.336V38.704V38.7035C-0.000686369 38.7379 -0.000686369 38.7717 0.00205911 38.806C0.0555969 42.6055 3.06558 45.6969 6.82797 45.8992C7.3272 47.0756 8.48718 47.8879 9.84124 47.8879H11.1531C12.9588 47.8879 14.4327 46.4135 14.4327 44.6079V32.7999C14.4327 30.9943 12.9588 29.5199 11.1531 29.5199H9.84124C8.49679 29.5199 7.35383 30.3458 6.84859 31.5086C4.56196 31.6249 2.55413 32.8188 1.31406 34.5836V20.3367C1.31406 9.91698 12.0976 1.31271 25.5837 1.31271C39.0704 1.31271 49.8534 9.91674 49.8534 20.3367V34.5836C48.6133 32.8188 46.6054 31.6248 44.3188 31.5086C43.8137 30.3459 42.6702 29.5199 41.3262 29.5199H40.0143C38.2087 29.5199 36.7348 30.9943 36.7348 32.7999V44.6079C36.7348 46.4135 38.2087 47.8879 40.0143 47.8879H41.3262C42.6802 47.8879 43.8402 47.0757 44.3395 45.8992C45.3727 45.8433 46.3556 45.588 47.2296 45.1405V47.2317C47.2296 49.7868 45.1933 51.8236 42.6382 51.8236H31.4872C31.4662 51.8295 31.4456 51.8359 31.4255 51.8437C31.1143 49.9822 29.4991 48.5431 27.5516 48.5431H23.6158C21.4468 48.5431 19.68 50.3099 19.68 52.4793C19.68 54.6484 21.4468 56.4156 23.6158 56.4156H27.5516C29.4991 56.4156 31.1148 54.9971 31.4255 53.1356C31.4461 53.1365 31.4667 53.1365 31.4872 53.1356H42.6382C45.8971 53.1356 48.5416 50.4912 48.5416 47.2318V44.6076C48.543 44.5087 48.5219 44.4104 48.4798 44.3207C50.0723 43.033 51.0886 41.0769 51.1444 38.8882H51.1448C51.1521 38.8749 51.159 38.8612 51.1654 38.8474V38.8273C51.1691 38.7861 51.1691 38.7449 51.1654 38.7042V20.3362C51.1654 9.01822 39.63 0.000214942 25.5838 0.000214942L25.5837 0ZM9.84089 30.832H11.1528C12.2542 30.832 13.1204 31.6982 13.1204 32.8001V44.6081C13.1204 45.7095 12.2542 46.5762 11.1528 46.5762H9.84089C8.73947 46.5762 7.87324 45.71 7.87324 44.6081V32.8001C7.87324 31.6987 8.73945 30.832 9.84089 30.832ZM40.0134 30.832H41.3253C42.4267 30.832 43.2929 31.6982 43.2929 32.8001V44.6081C43.2929 45.7095 42.4267 46.5762 41.3253 46.5762H40.0134C38.912 46.5762 38.0457 45.71 38.0457 44.6081V32.8001C38.0457 31.6987 38.9119 30.832 40.0134 30.832ZM6.56089 32.9232V44.4645C3.65973 44.1282 1.37415 41.8031 1.31324 38.827H1.3137C1.31736 38.7858 1.31736 38.7446 1.3137 38.7039C1.3137 35.6683 3.61954 33.2627 6.56134 32.9227L6.56089 32.9232ZM44.6054 32.9232C47.5472 33.2628 49.853 35.6688 49.853 38.7045V38.704C49.8512 38.7315 49.8512 38.7589 49.853 38.7859C49.8123 41.7817 47.5198 44.1265 44.6054 44.4647V32.9232ZM23.6157 49.8562H27.5515C29.0162 49.8562 30.1752 51.0153 30.1752 52.48C30.1752 53.9452 29.0162 55.1038 27.5515 55.1038H23.6157C22.151 55.1038 20.992 53.9447 20.992 52.48C20.992 51.0148 22.151 49.8562 23.6157 49.8562Z" fill="#014E62"/>
</svg>
