<svg width="82" height="82" viewBox="0 0 82 82" fill="none" xmlns="http://www.w3.org/2000/svg">
<path d="M64.2634 35.9172C63.6978 35.8179 63.1739 36.1908 63.0755 36.7486C61.1774 47.4539 51.8874 55.2232 40.9847 55.2232C29.5106 55.2232 20.0278 46.557 18.7217 35.4272L24.4259 41.1101C24.8286 41.5109 25.4766 41.5086 25.8751 41.1069C26.276 40.706 26.2737 40.0572 25.8733 39.6577L18.2609 32.0746C18.2476 32.0613 18.2311 32.0572 18.2169 32.0457C18.1309 31.968 18.0367 31.8993 17.9291 31.8549C17.8134 31.8069 17.6903 31.7854 17.5663 31.7813C17.5562 31.7799 17.5479 31.7748 17.5374 31.7748H17.5365C17.4034 31.7748 17.2702 31.8023 17.1448 31.8536C17.0199 31.9057 16.9059 31.9808 16.8117 32.0759L9.22984 39.6578C8.82899 40.0586 8.82899 40.7066 9.22984 41.107C9.4298 41.3069 9.692 41.4071 9.95466 41.4071C10.2169 41.4071 10.4795 41.3065 10.6795 41.107L16.6295 35.1579C17.8192 47.5504 28.2866 57.2721 40.9847 57.2721C52.8817 57.2721 63.0216 48.7902 65.0939 37.1048C65.1936 36.5479 64.8216 36.0162 64.2638 35.9178L64.2634 35.9172ZM72.77 24.4628C72.3691 24.062 71.7212 24.062 71.3208 24.4628L65.342 30.4417C64.1508 18.0491 53.6835 8.32861 40.9844 8.32861C29.1062 8.32861 18.9803 16.7982 16.9057 28.4666C16.8064 29.0231 17.1784 29.5562 17.7358 29.6546C18.2895 29.7553 18.8253 29.3819 18.9237 28.8245C20.8241 18.1357 30.1013 10.378 40.9841 10.378C52.4526 10.378 61.9327 19.0361 63.2459 30.1576L57.5746 24.4647C57.1746 24.0629 56.5271 24.0607 56.1254 24.4615C55.7245 24.8614 55.7227 25.5103 56.1235 25.9107L63.7054 33.5223C63.7997 33.6165 63.9113 33.6934 64.0367 33.7456C64.1607 33.7986 64.2948 33.8261 64.4311 33.8261H64.432C64.5693 33.8261 64.7038 33.7986 64.8265 33.746C64.9514 33.6939 65.063 33.6179 65.1578 33.5246L72.7694 25.913C73.1707 25.5135 73.1707 24.8646 72.7698 24.4638L72.77 24.4628Z" fill="#014E62"/>
</svg>
