<svg width="82" height="82" viewBox="0 0 82 82" fill="none" xmlns="http://www.w3.org/2000/svg">
<path d="M57.0005 53.8H51.5337C50.7791 53.8 50.1673 53.1877 50.1673 52.4332C50.1673 51.6786 50.7791 51.0664 51.5337 51.0664H57.0005C58.4497 51.065 59.8394 50.4884 60.8644 49.4634C61.8889 48.4388 62.4655 47.0492 62.4673 45.6V29.2C62.4655 27.7504 61.8889 26.3612 60.8644 25.3362C59.8394 24.3112 58.4497 23.7351 57.0005 23.7332H24.2005C22.7513 23.735 21.3617 24.3111 20.3367 25.3362C19.3121 26.3612 18.7356 27.7504 18.7337 29.2V40.1332C18.7337 40.8877 18.1219 41.5 17.3673 41.5C16.6123 41.5 16.0005 40.8877 16.0005 40.1332V29.2C16.0028 27.0259 16.8676 24.9416 18.4046 23.4041C19.9421 21.8671 22.0265 21.0022 24.2005 21H57.0005C59.1746 21.0023 61.2589 21.8671 62.7964 23.4041C64.3334 24.9416 65.1983 27.0259 65.2005 29.2V45.6C65.1982 47.7741 64.3334 49.8584 62.7964 51.3954C61.2589 52.9329 59.1746 53.7973 57.0005 53.8ZM31.0335 31.9329C29.9462 31.9329 28.9033 32.3649 28.1346 33.1337C27.3654 33.9029 26.9335 34.9457 26.9335 36.0329C26.9335 37.1201 27.3654 38.1631 28.1346 38.9322C28.9034 39.701 29.9463 40.1329 31.0335 40.1329C32.1212 40.1329 33.1641 39.701 33.9327 38.9322C34.7015 38.163 35.1335 37.1201 35.1335 36.0329C35.1325 34.9457 34.7001 33.9038 33.9313 33.1351C33.1626 32.3668 32.1207 31.9343 31.0335 31.9329ZM31.0335 29.1998C32.846 29.1998 34.5839 29.9195 35.8656 31.2013C37.1469 32.4826 37.8671 34.2204 37.8671 36.0329C37.8671 37.8455 37.1469 39.5834 35.8656 40.8646C34.5839 42.1463 32.846 42.8661 31.0335 42.8661C29.2214 42.8661 27.483 42.1463 26.2018 40.8646C24.9201 39.5833 24.2003 37.8455 24.2003 36.0329C24.2003 34.2204 24.9201 32.4825 26.2018 31.2013C27.4831 29.9196 29.2214 29.1998 31.0335 29.1998ZM37.8671 51.0659H24.2C22.7509 51.0677 21.3612 51.6438 20.3362 52.6689C19.3117 53.6939 18.7351 55.0831 18.7332 56.5327C18.7341 57.2571 19.0224 57.9521 19.5349 58.4642C20.0474 58.9767 20.7421 59.2649 21.4668 59.2659H40.5998C41.3246 59.2649 42.0192 58.9767 42.5317 58.4642C43.0442 57.9521 43.3325 57.257 43.3329 56.5327C43.3316 55.0831 42.755 53.6939 41.73 52.6689C40.7054 51.6439 39.3158 51.0678 37.8666 51.0659M37.8666 48.3327C40.041 48.3327 42.1267 49.1966 43.6647 50.7341C45.2027 52.2721 46.0666 54.3578 46.0666 56.5327C46.0666 57.9823 45.4905 59.3729 44.4655 60.3979C43.44 61.4234 42.0494 61.9991 40.5998 61.9991H21.4668C20.0167 61.9991 18.6266 61.4234 17.6011 60.3979C16.5761 59.3729 16 57.9823 16 56.5327C16 54.3578 16.8639 52.2721 18.4019 50.7341C19.9394 49.1966 22.0251 48.3327 24.2 48.3327H37.8666Z" fill="#014E62"/>
</svg>
